:SAMPLES-PER-SECOND 30
:FULLY-SPECIFIED
:DEGREES
54
root  0.261772 39.8865 15.1903 -176.098 -4.32254 179.015
RightUpLeg  -14.1945 -3.90367 -4.07062
RightLeg  13.5916 3.40371 -0.846439
RightFoot  -2.26266 -0.281382 3.34777
RightToes  -5.8209e-011 0 -3.6325e-017
Spine  30.729 -3.14684 11.145
Spine1  17.6318 0.657746 -2.93845
HEad  12.6953 -9.30453 -0.0531708
LeftShoulder1  6.70589 -15.93 -28.4189
LeftArm  15.9641 -24.3947 -65.342
LeftForeArm  2.45154 -14.5226 -9.30656
LeftHand  -0.246645 0.021 5.37786
RightShoulder  8.73523 16.7679 37.0427
RightArm  7.47712 27.646 45.8837
RightForeArm  -27.017 19.0967 7.84493
RightHand  -0.24729 -0.0210522 -5.37781
LeftUpLeg  -14.7325 10.3701 7.26124
LeftLeg  8.80211 -8.36163 -2.79663
LeftFoot  4.78905 1.05398 -7.63581
LeftToes  -7.45818e-011 -3.37383e-011 1.08613e-011
55
root  0.42347 39.8845 15.1703 -176.131 -4.94034 178.985
RightUpLeg  -14.1648 -4.03934 -3.87855
RightLeg  13.8529 2.91446 -0.918967
RightFoot  -2.40471 -0.251196 3.00381
RightToes  -5.8209e-011 0 -3.6325e-017
Spine  30.3153 -3.33586 11.4858
Spine1  17.5399 0.457484 -2.8938
HEad  12.6546 -9.45819 0.0302761
LeftShoulder1  6.70528 -15.883 -28.5021
LeftArm  16.5645 -23.3737 -64.8663
LeftForeArm  1.85544 -15.17 -8.98912
LeftHand  -0.246645 0.021 5.37786
RightShoulder  8.75965 16.7323 37.2339
RightArm  9.38867 26.3594 46.1611
RightForeArm  -25.3834 20.5976 7.04599
RightHand  -0.24729 -0.0210522 -5.37781
LeftUpLeg  -14.9032 10.3054 7.40974
LeftLeg  8.91802 -9.02751 -2.76877
LeftFoot  4.98846 1.18928 -8.49325
LeftToes  -7.45818e-011 -3.37383e-011 1.08613e-011
56
root  0.529092 39.8952 15.1507 -176.196 -5.18915 179.021
RightUpLeg  -14.0353 -4.01934 -3.69902
RightLeg  13.8443 2.6191 -0.957286
RightFoot  -2.36514 -0.235896 2.80121
RightToes  -5.8209e-011 0 -3.6325e-017
Spine  30.0278 -3.41344 11.647
Spine1  17.3377 0.396091 -2.94528
HEad  12.7652 -9.42561 0.107223
LeftShoulder1  6.73066 -15.8752 -28.6507
LeftArm  15.5061 -23.4859 -64.7904
LeftForeArm  6.19226 -13.859 -9.5034
LeftHand  -0.246645 0.021 5.37786
RightShoulder  8.80053 16.7539 37.3847
RightArm  11.6505 25.9334 46.8314
RightForeArm  -22.8287 21.7393 6.47397
RightHand  -0.24729 -0.0210522 -5.37781
LeftUpLeg  -14.9644 10.2652 7.61051
LeftLeg  9.16582 -8.66795 -2.59966
LeftFoot  4.65376 1.167 -8.494
LeftToes  -7.45818e-011 -3.37383e-011 1.08613e-011
57
root  0.573914 39.9153 15.1343 -176.248 -5.21629 179.057
RightUpLeg  -13.8242 -3.9734 -3.6112
RightLeg  13.5872 2.53502 -0.947305
RightFoot  -2.26316 -0.234134 2.77826
RightToes  -5.8209e-011 0 -3.6325e-017
Spine  29.7976 -3.37835 11.6164
Spine1  17.0834 0.405901 -2.94074
HEad  12.9195 -9.26919 0.26852
LeftShoulder1  6.82587 -15.9499 -29.0143
LeftArm  12.0933 -24.6315 -64.9071
LeftForeArm  14.004 -10.6169 -10.4941
LeftHand  -0.246645 0.021 5.37786
RightShoulder  8.83364 16.8035 37.439
RightArm  14.0034 26.276 47.6775
RightForeArm  -20.4627 22.1341 6.25554
RightHand  -0.24729 -0.0210522 -5.37781
LeftUpLeg  -14.9372 10.1243 7.77074
LeftLeg  9.4534 -7.18835 -2.2295
LeftFoot  4.01968 0.95245 -7.23385
LeftToes  -7.45818e-011 -3.37383e-011 1.08613e-011
58
root  0.540415 39.9239 15.127 -176.327 -5.40149 179.15
RightUpLeg  -13.576 -4.07623 -3.59923
RightLeg  13.3541 2.44527 -0.926653
RightFoot  -2.20891 -0.235338 2.78402
RightToes  -5.8209e-011 0 -3.6325e-017
Spine  29.5893 -3.43313 11.6676
Spine1  16.7943 0.290691 -2.80681
HEad  12.9055 -9.12318 0.471745
LeftShoulder1  6.93633 -16.0479 -29.4109
LeftArm  7.79032 -26.4717 -65.2851
LeftForeArm  22.1604 -6.44597 -10.8492
LeftHand  -0.246645 0.021 5.37786
RightShoulder  8.87514 16.8566 37.5257
RightArm  16.0965 27.0232 48.4135
RightForeArm  -17.777 21.9538 6.205
RightHand  -0.24729 -0.0210522 -5.37781
LeftUpLeg  -14.8139 9.63685 7.88363
LeftLeg  9.6195 -5.41838 -1.71556
LeftFoot  3.47928 0.715232 -5.66237
LeftToes  -7.45818e-011 -3.37383e-011 1.08613e-011
59
root  0.433742 39.9087 15.13 -176.469 -5.71841 179.407
RightUpLeg  -13.3588 -4.20061 -3.5457
RightLeg  13.3162 2.22606 -0.9263
RightFoot  -2.20969 -0.238757 2.80703
RightToes  -5.8209e-011 0 -3.6325e-017
Spine  29.4971 -3.58119 11.8591
Spine1  16.3647 0.0654812 -2.53076
HEad  12.7633 -9.05246 0.615426
LeftShoulder1  6.96414 -16.0772 -29.5011
LeftArm  5.56627 -28.5783 -66.2159
LeftForeArm  27.5541 -2.68851 -10.0935
LeftHand  -0.246645 0.021 5.37786
RightShoulder  8.9507 16.9225 37.7465
RightArm  17.1689 27.8974 48.902
RightForeArm  -14.5611 21.3481 6.30745
RightHand  -0.24729 -0.0210522 -5.37781
LeftUpLeg  -14.5831 9.04052 8.07296
LeftLeg  9.63119 -4.34752 -1.30771
LeftFoot  3.16308 0.62923 -5.09655
LeftToes  -7.45818e-011 -3.37383e-011 1.08613e-011
60
root  0.276984 39.8817 15.1385 -176.613 -5.81422 179.76
RightUpLeg  -13.2328 -4.10391 -3.45691
RightLeg  13.3553 2.04036 -0.948318
RightFoot  -2.2078 -0.25265 2.97382
RightToes  -5.8209e-011 0 -3.6325e-017
Spine  29.5685 -3.55399 11.831
Spine1  15.7549 -0.0940104 -1.98995
HEad  12.7686 -9.02135 0.661269
LeftShoulder1  6.91274 -16.0565 -29.2716
LeftArm  5.07896 -30.7216 -67.5112
LeftForeArm  30.851 0.494341 -9.02895
LeftHand  -0.246645 0.021 5.37786
RightShoulder  9.04675 17.0053 38.0267
RightArm  16.7603 28.9607 49.0769
RightForeArm  -11.9365 20.1277 6.83037
RightHand  -0.24729 -0.0210522 -5.37781
LeftUpLeg  -14.3567 8.8134 8.30784
LeftLeg  9.63808 -4.1162 -1.17322
LeftFoot  2.9339 0.69251 -5.67137
LeftToes  -7.45818e-011 -3.37383e-011 1.08613e-011
61
root  0.0760812 39.8649 15.1484 -176.662 -5.67715 179.991
RightUpLeg  -13.1761 -3.81138 -3.53056
RightLeg  13.279 1.9848 -1.01308
RightFoot  -2.15919 -0.281099 3.3153
RightToes  -5.8209e-011 0 -3.6325e-017
Spine  29.6771 -3.24968 11.3693
Spine1  15.1037 -0.157446 -1.12897
HEad  13.0326 -9.0304 0.668361
LeftShoulder1  6.8666 -16.0863 -28.9757
LeftArm  4.81731 -32.8504 -68.6901
LeftForeArm  33.9435 3.35234 -8.15154
LeftHand  -0.246645 0.021 5.37786
RightShoulder  9.11062 17.0718 38.1875
RightArm  14.9797 30.3091 48.9586
RightForeArm  -10.352 18.2718 7.91231
RightHand  -0.24729 -0.0210522 -5.37781
LeftUpLeg  -14.3026 8.9888 8.32864
LeftLeg  9.77264 -4.20672 -1.24994
LeftFoot  2.72688 0.767397 -6.34959
LeftToes  -7.45818e-011 -3.37383e-011 1.08613e-011
62
root  -0.181785 39.8673 15.158 -176.635 -5.6882 -179.991
RightUpLeg  -13.0724 -3.54963 -3.90337
RightLeg  13.0528 1.83466 -1.16967
RightFoot  -2.0429 -0.320532 3.76753
RightToes  -5.8209e-011 0 -3.6325e-017
Spine  29.7176 -2.91664 10.7618
Spine1  14.5116 -0.25841 -0.173114
HEad  13.3668 -9.1404 0.691218
LeftShoulder1  6.85061 -16.1972 -28.6893
LeftArm  4.69125 -34.8814 -69.6857
LeftForeArm  37.564 5.66762 -7.32145
LeftHand  -0.246645 0.021 5.37786
RightShoulder  9.11203 17.0978 38.1397
RightArm  12.5485 31.696 48.7739
RightForeArm  -8.81887 16.2355 9.13544
RightHand  -0.24729 -0.0210522 -5.37781
LeftUpLeg  -14.4099 9.22169 7.98304
LeftLeg  9.9671 -4.35471 -1.42665
LeftFoot  2.61655 0.764313 -6.37015
LeftToes  -7.45818e-011 -3.37383e-011 1.08613e-011
